<?xml version="1.0" standalone="no"?>
<!DOCTYPE svg PUBLIC "-//W3C//DTD SVG 20010904//EN"
 "http://www.w3.org/TR/2001/REC-SVG-20010904/DTD/svg10.dtd">
<svg version="1.0" xmlns="http://www.w3.org/2000/svg"
 width="128.000000pt" height="128.000000pt" viewBox="0 0 128.000000 128.000000"
 preserveAspectRatio="xMidYMid meet">

<g transform="translate(0.000000,128.000000) scale(0.100000,-0.100000)"
fill="#000000" stroke="none">
<path d="M760 1022 c0 -8 11 -30 25 -48 16 -21 20 -31 11 -28 -8 3 -20 3 -25
-1 -16 -9 18 -55 40 -55 17 0 23 -12 22 -47 -1 -13 50 18 63 38 3 6 -26 43
-65 84 -39 40 -71 66 -71 57z"/>
<path d="M982 888 c0 -44 -20 -83 -66 -127 -26 -25 -33 -38 -27 -50 9 -17 6
-195 -4 -242 -4 -16 -11 -30 -16 -30 -5 -1 -12 -2 -16 -3 -12 -2 -67 -39 -74
-49 -3 -5 -15 -8 -25 -6 -11 1 -27 -1 -36 -6 -10 -4 -25 -4 -34 -1 -10 4 -31
-6 -55 -25 -54 -43 -134 -80 -198 -94 l-53 -11 106 -97 c113 -104 108 -102
217 -90 54 6 59 8 31 13 -32 5 -25 10 140 105 95 54 188 108 207 119 39 23 37
17 -16 -54 l-35 -45 46 50 c86 94 156 267 156 384 0 46 -1 47 -124 170 l-124
124 0 -35z"/>
<path d="M277 871 c3 -11 21 -38 40 -61 l35 -41 16 22 c13 20 14 23 1 28 -8 3
13 10 46 15 33 6 59 16 58 21 -4 17 -49 17 -89 0 -37 -15 -38 -15 -64 10 -31
30 -50 32 -43 6z"/>
<path d="M901 846 c-30 -25 -58 -43 -63 -40 -4 3 -8 -2 -8 -12 0 -11 -6 -15
-20 -11 -11 3 -23 1 -26 -4 -6 -10 -52 -1 -71 14 -9 6 -13 6 -13 -1 0 -12 68
-37 77 -28 4 3 12 -3 20 -13 11 -16 19 -18 45 -10 54 15 124 97 116 135 -2 10
-19 1 -57 -30z"/>
<path d="M607 863 c-14 -13 -6 -21 28 -27 20 -4 33 -10 31 -14 -3 -4 11 -6 30
-4 45 5 43 16 -6 36 -43 17 -72 20 -83 9z"/>
<path d="M490 820 c-9 -6 -10 -10 -3 -10 6 0 15 5 18 10 8 12 4 12 -15 0z"/>
<path d="M545 820 l-30 -8 27 -1 c15 0 30 4 33 9 3 6 5 9 3 9 -2 -1 -16 -5
-33 -9z"/>
<path d="M432 773 c-18 -7 -33 -39 -26 -57 8 -20 67 -21 83 -2 14 17 5 43 -20
56 -10 6 -19 10 -21 9 -2 0 -9 -3 -16 -6z m38 -23 c0 -5 -4 -10 -10 -10 -5 0
-10 5 -10 10 0 6 5 10 10 10 6 0 10 -4 10 -10z"/>
<path d="M345 750 c10 -11 20 -20 23 -20 3 0 -3 9 -13 20 -10 11 -20 20 -23
20 -3 0 3 -9 13 -20z"/>
<path d="M596 751 c-24 -27 -13 -58 25 -66 51 -11 79 34 43 69 -21 21 -47 20
-68 -3z m34 -11 c0 -5 -4 -10 -10 -10 -5 0 -10 5 -10 10 0 6 5 10 10 10 6 0
10 -4 10 -10z"/>
<path d="M725 650 c-25 -5 -27 -7 -11 -13 16 -6 18 -15 13 -65 -5 -63 -34
-130 -76 -176 l-26 -30 25 16 c40 24 92 135 93 199 1 30 6 57 12 61 15 11 2
15 -30 8z"/>
<path d="M357 351 c-6 -24 0 -31 19 -24 18 7 18 43 0 43 -7 0 -16 -9 -19 -19z"/>
<path d="M417 364 c-13 -13 -7 -32 12 -37 13 -3 18 1 17 16 -1 21 -17 32 -29
21z"/>
<path d="M994 178 l-19 -23 23 19 c21 18 27 26 19 26 -2 0 -12 -10 -23 -22z"/>
</g>
</svg>
